<?xml version="1.0" standalone="no"?>
<!DOCTYPE svg PUBLIC "-//W3C//DTD SVG 20010904//EN"
 "http://www.w3.org/TR/2001/REC-SVG-20010904/DTD/svg10.dtd">
<svg version="1.0" xmlns="http://www.w3.org/2000/svg"
 width="100.000000pt" height="100.000000pt" viewBox="0 0 100.000000 100.000000"
 preserveAspectRatio="xMidYMid meet">
<metadata>
Created by potrace 1.16, written by Peter Selinger 2001-2019
</metadata>
<g transform="translate(0.000000,100.000000) scale(0.100000,-0.100000)"
fill="#000000" stroke="none">
<path d="M130 495 l0 -365 288 0 c158 0 292 4 298 8 6 4 16 36 23 72 20 114
63 209 118 258 26 24 58 48 71 53 12 5 25 16 29 24 7 19 -23 88 -47 110 -15
14 -21 12 -68 -26 -68 -55 -139 -147 -160 -206 -17 -48 -17 -47 -20 195 l-2
242 -265 0 -265 0 0 -365z m520 130 c0 -206 -7 -267 -24 -200 -4 14 -11 25
-16 25 -16 0 -12 27 5 34 9 3 15 18 15 36 0 38 -17 40 -23 3 -2 -16 -5 52 -6
150 l-1 177 25 0 25 0 0 -225z m263 -30 c19 -40 21 -55 7 -55 -16 0 -76 -45
-107 -81 -35 -41 -90 -178 -99 -249 -5 -39 -11 -50 -24 -50 -10 0 -21 7 -24
16 -3 8 -2 12 4 9 6 -3 10 -2 10 4 0 5 -5 11 -12 13 -9 3 -8 25 4 90 14 70 25
97 61 149 25 35 48 74 51 86 7 21 91 103 106 103 3 0 14 -16 23 -35z"/>
</g>
</svg>
