<?xml version="1.0" standalone="no"?>
<!DOCTYPE svg PUBLIC "-//W3C//DTD SVG 20010904//EN"
 "http://www.w3.org/TR/2001/REC-SVG-20010904/DTD/svg10.dtd">
<svg version="1.0" xmlns="http://www.w3.org/2000/svg"
 width="100.000000pt" height="100.000000pt" viewBox="0 0 100.000000 100.000000"
 preserveAspectRatio="xMidYMid meet">
<metadata>
Created by potrace 1.16, written by Peter Selinger 2001-2019
</metadata>
<g transform="translate(0.000000,100.000000) scale(0.100000,-0.100000)"
fill="#000000" stroke="none">
<path d="M100 505 l0 -385 275 0 275 0 -1 143 -1 142 -75 64 -76 65 69 63 c38
34 74 63 79 63 6 0 3 -4 -5 -10 -8 -5 -12 -11 -10 -14 3 -2 33 16 68 41 35 25
61 47 58 50 -3 3 -24 -11 -47 -31 -24 -20 -46 -36 -51 -36 -4 0 -8 52 -8 115
l0 115 -275 0 -275 0 0 -385z"/>
<path d="M985 782 c-5 -4 -28 -29 -49 -55 -75 -94 -81 -97 -173 -97 -80 0 -84
-1 -110 -31 -16 -17 -27 -36 -25 -41 1 -5 -2 -7 -7 -3 -7 4 -7 15 -1 31 13 32
12 37 0 29 -5 -3 -10 -14 -10 -25 0 -10 -7 -21 -16 -24 -13 -5 -13 -8 -2 -19
33 -33 82 -47 167 -47 106 0 139 19 148 88 3 24 13 48 22 55 33 24 74 88 64
98 -7 7 -19 -4 -37 -35 -16 -28 -34 -46 -44 -45 -10 0 -12 3 -4 6 6 2 12 11
12 19 0 9 5 12 10 9 6 -3 14 5 19 18 6 14 20 32 31 40 12 9 21 20 19 26 -2 6
-8 7 -14 3z"/>
</g>
</svg>
